<!-- A sprite that contains all SVG files -->
<svg xmlns="http://www.w3.org/2000/svg" xmlns:xlink="http://www.w3.org/1999/xlink">
  <defs>
    <symbol id="triangle" xmlns="http://www.w3.org/2000/svg"><svg version="1.1" id="Layer_1" xmlns="http://www.w3.org/2000/svg" xmlns:xlink="http://www.w3.org/1999/xlink" x="0px" y="0px"
	 viewBox="0 0 191.4 169.7" style="enable-background:new 0 0 191.4 169.7;" xml:space="preserve">
<style type="text/css">
	.st0{fill:#53499E;}
</style>
<path class="st0" d="M47.8,9.9v100.4h100.4V9.9H47.8z M74.2,26.8l21.1,19.6l-5.6,6.6L71.2,35.7l-2.2,2.7l4,3.7l-5.6,6.6L61,42.7
	L74.2,26.8z M95.6,89.5H61.1V52.9h8.3v21.8l18-18.7l5.7,5.9L74.6,81.1h21V89.5z M111.7,61.1l23.4,18.3v10.1h-34.8V71h8.9l-0.1,9.9
	h14.7l-23.4-18.3v-9.7H135l0.1,18.1h-8.4l0.1-9.9H111.7z M135.1,42.5l-2.4,3c-2.9,0.1-11.7,0-14.6,0l-3.8,4.4l-3.4-4.2
	c-2.1,0.1-8.2,0-10.6,0c0.2-2.2,0.2-5.3,0.2-7.7c3.3,0,9.6-0.1,9.6-0.1l4.3,6l4.9-5.9c0,0,7.7-0.1,9.7-0.2c1.7,0,3.2,0,3.2,0
	c0.7-1.2,2.6-3.3,3-4.4C134.9,34.1,135.1,42.5,135.1,42.5z"/>
</svg>
</symbol>
    <symbol id="circle" xmlns="http://www.w3.org/2000/svg">
            <svg version="1.1" id="Layer_1" xmlns="http://www.w3.org/2000/svg" xmlns:xlink="http://www.w3.org/1999/xlink" x="0px" y="0px"
          viewBox="0 0 191.4 169.7" style="enable-background:new 0 0 191.4 169.7;" xml:space="preserve">
        <style type="text/css">
          .st0{fill:#53499E;}
        </style>
        <g>
          <path class="st0" d="M52,77.1c-0.2,0-0.6,0-1,0c0,0,0,0,0,0c0,2.4,0,7.5-0.1,15.3c0,0,0.2,0.1,0.6,0.1h3.7l0,0
            c0-7.3,0-12.5,0.1-15.4l0,0H52z"/>
          <path class="st0" d="M37.1,88.3c2.9-2.9,5.1-5,6.5-6.4l0,0l-2.3-2.3c-0.2-0.2-0.4-0.4-0.7-0.7c0,0,0,0,0,0
            c-1.2,1.2-3.4,3.4-6.5,6.5c0-3.6,0-6.3,0-8.1l0,0h-3.2c-0.2,0-0.6,0-1,0c0,0,0,0,0,0c0,2.1,0,6.2-0.1,12.4c0,0,0,0,0,0c0,0,0,0,0,0
            c0,0.9,0,1.9,0,2.9c0,0,0.1,0,0.2,0v0l0,0c0.9,0,1.8,0,2.7,0l0.1,0.1l0,0c0,0,0,0,0.1-0.1c5.8,0,10,0,12.5,0l0,0v-3.2
            c0-0.2,0-0.6,0-1c0,0,0,0,0,0C43.7,88.3,41,88.3,37.1,88.3z"/>
          <path class="st0" d="M68,88.3c2.9-2.9,5.1-5,6.5-6.4l0,0l-2.3-2.3c-0.2-0.2-0.4-0.4-0.7-0.7c0,0,0,0,0,0c-1.2,1.2-3.4,3.4-6.5,6.5
            c0-3.6,0-6.3,0-8.1l0,0h-3.2c-0.2,0-0.6,0-1,0c0,0,0,0,0,0c0,2.1,0,6.2-0.1,12.4c0,0,0,0,0,0c0,0,0,0,0,0c0,0.9,0,1.9,0,2.9
            c0,0,0.1,0,0.2,0v0l0,0c0.9,0,1.8,0,2.7,0l0.1,0.1l0,0c0,0,0,0,0.1-0.1c5.8,0,10,0,12.5,0l0,0v-3.2c0-0.2,0-0.6,0-1c0,0,0,0,0,0
            C74.6,88.3,71.9,88.3,68,88.3z"/>
          <path class="st0" d="M82.9,77.1c-0.2,0-0.6,0-1,0c0,0,0,0,0,0c0,2.4,0,7.5-0.1,15.3c0,0,0.2,0.1,0.6,0.1H86l0,0
            c0-7.3,0-12.5,0.1-15.4l0,0H82.9z"/>
          <polygon class="st0" points="150.7,84.7 150.6,77.1 135,77.1 135,81.2 145.6,88.8 138.9,88.8 138.9,84.7 134.9,84.7 134.9,92.4 
            150.7,92.4 150.7,88.2 140.1,80.6 146.9,80.6 146.9,84.7 	"/>
          <polygon class="st0" points="107.4,84.7 107.3,77.1 91.6,77.1 91.6,81.2 102.2,88.8 95.6,88.8 95.6,84.7 91.6,84.7 91.6,92.4 
            107.4,92.4 107.4,88.2 96.7,80.6 103.6,80.6 103.6,84.7 	"/>
          <path class="st0" d="M113.3,92.5h15.8V77.1h-15.8V92.5z M117.1,81.5h8v6.7h-8V81.5z"/>
          <path class="st0" d="M156.3,77.1v15.4h15.8V77.1H156.3z M168.1,88.3h-8v-6.7h8V88.3z"/>
        </g>
        </svg>
</symbol>
    <symbol id="upDown" xmlns="http://www.w3.org/2000/svg">         <svg version="1.1" id="Layer_1" xmlns="http://www.w3.org/2000/svg" xmlns:xlink="http://www.w3.org/1999/xlink" x="0px" y="0px"
          viewBox="0 0 191.4 169.7" style="enable-background:new 0 0 191.4 169.7;" xml:space="preserve">
        <style type="text/css">
          .st0{fill:#53499E;}
        </style>
        <g>
          <path class="st0" d="M52,77.1c-0.2,0-0.6,0-1,0c0,0,0,0,0,0c0,2.4,0,7.5-0.1,15.3c0,0,0.2,0.1,0.6,0.1h3.7l0,0
            c0-7.3,0-12.5,0.1-15.4l0,0H52z"/>
          <path class="st0" d="M37.1,88.3c2.9-2.9,5.1-5,6.5-6.4l0,0l-2.3-2.3c-0.2-0.2-0.4-0.4-0.7-0.7c0,0,0,0,0,0
            c-1.2,1.2-3.4,3.4-6.5,6.5c0-3.6,0-6.3,0-8.1l0,0h-3.2c-0.2,0-0.6,0-1,0c0,0,0,0,0,0c0,2.1,0,6.2-0.1,12.4c0,0,0,0,0,0c0,0,0,0,0,0
            c0,0.9,0,1.9,0,2.9c0,0,0.1,0,0.2,0v0l0,0c0.9,0,1.8,0,2.7,0l0.1,0.1l0,0c0,0,0,0,0.1-0.1c5.8,0,10,0,12.5,0l0,0v-3.2
            c0-0.2,0-0.6,0-1c0,0,0,0,0,0C43.7,88.3,41,88.3,37.1,88.3z"/>
          <path class="st0" d="M68,88.3c2.9-2.9,5.1-5,6.5-6.4l0,0l-2.3-2.3c-0.2-0.2-0.4-0.4-0.7-0.7c0,0,0,0,0,0c-1.2,1.2-3.4,3.4-6.5,6.5
            c0-3.6,0-6.3,0-8.1l0,0h-3.2c-0.2,0-0.6,0-1,0c0,0,0,0,0,0c0,2.1,0,6.2-0.1,12.4c0,0,0,0,0,0c0,0,0,0,0,0c0,0.9,0,1.9,0,2.9
            c0,0,0.1,0,0.2,0v0l0,0c0.9,0,1.8,0,2.7,0l0.1,0.1l0,0c0,0,0,0,0.1-0.1c5.8,0,10,0,12.5,0l0,0v-3.2c0-0.2,0-0.6,0-1c0,0,0,0,0,0
            C74.6,88.3,71.9,88.3,68,88.3z"/>
          <path class="st0" d="M82.9,77.1c-0.2,0-0.6,0-1,0c0,0,0,0,0,0c0,2.4,0,7.5-0.1,15.3c0,0,0.2,0.1,0.6,0.1H86l0,0
            c0-7.3,0-12.5,0.1-15.4l0,0H82.9z"/>
          <polygon class="st0" points="150.7,84.7 150.6,77.1 135,77.1 135,81.2 145.6,88.8 138.9,88.8 138.9,84.7 134.9,84.7 134.9,92.4 
            150.7,92.4 150.7,88.2 140.1,80.6 146.9,80.6 146.9,84.7 	"/>
          <polygon class="st0" points="107.4,84.7 107.3,77.1 91.6,77.1 91.6,81.2 102.2,88.8 95.6,88.8 95.6,84.7 91.6,84.7 91.6,92.4 
            107.4,92.4 107.4,88.2 96.7,80.6 103.6,80.6 103.6,84.7 	"/>
          <path class="st0" d="M113.3,92.5h15.8V77.1h-15.8V92.5z M117.1,81.5h8v6.7h-8V81.5z"/>
          <path class="st0" d="M156.3,77.1v15.4h15.8V77.1H156.3z M168.1,88.3h-8v-6.7h8V88.3z"/>
        </g>
        </svg></symbol>
    <symbol id="box" xmlns="http://www.w3.org/2000/svg"><svg version="1.1" id="Layer_1" xmlns="http://www.w3.org/2000/svg" xmlns:xlink="http://www.w3.org/1999/xlink" x="0px" y="0px"
	 viewBox="0 0 191.4 169.7" style="enable-background:new 0 0 191.4 169.7;" xml:space="preserve">
<style type="text/css">
	.st0{fill:#53499E;}
</style>
<g>
	<path class="st0" d="M52,77.1c-0.2,0-0.6,0-1,0c0,0,0,0,0,0c0,2.4,0,7.5-0.1,15.3c0,0,0.2,0.1,0.6,0.1h3.7l0,0
		c0-7.3,0-12.5,0.1-15.4l0,0H52z"/>
	<path class="st0" d="M37.1,88.3c2.9-2.9,5.1-5,6.5-6.4l0,0l-2.3-2.3c-0.2-0.2-0.4-0.4-0.7-0.7c0,0,0,0,0,0
		c-1.2,1.2-3.4,3.4-6.5,6.5c0-3.6,0-6.3,0-8.1l0,0h-3.2c-0.2,0-0.6,0-1,0c0,0,0,0,0,0c0,2.1,0,6.2-0.1,12.4c0,0,0,0,0,0c0,0,0,0,0,0
		c0,0.9,0,1.9,0,2.9c0,0,0.1,0,0.2,0v0l0,0c0.9,0,1.8,0,2.7,0l0.1,0.1l0,0c0,0,0,0,0.1-0.1c5.8,0,10,0,12.5,0l0,0v-3.2
		c0-0.2,0-0.6,0-1c0,0,0,0,0,0C43.7,88.3,41,88.3,37.1,88.3z"/>
	<path class="st0" d="M68,88.3c2.9-2.9,5.1-5,6.5-6.4l0,0l-2.3-2.3c-0.2-0.2-0.4-0.4-0.7-0.7c0,0,0,0,0,0c-1.2,1.2-3.4,3.4-6.5,6.5
		c0-3.6,0-6.3,0-8.1l0,0h-3.2c-0.2,0-0.6,0-1,0c0,0,0,0,0,0c0,2.1,0,6.2-0.1,12.4c0,0,0,0,0,0c0,0,0,0,0,0c0,0.9,0,1.9,0,2.9
		c0,0,0.1,0,0.2,0v0l0,0c0.9,0,1.8,0,2.7,0l0.1,0.1l0,0c0,0,0,0,0.1-0.1c5.8,0,10,0,12.5,0l0,0v-3.2c0-0.2,0-0.6,0-1c0,0,0,0,0,0
		C74.6,88.3,71.9,88.3,68,88.3z"/>
	<path class="st0" d="M82.9,77.1c-0.2,0-0.6,0-1,0c0,0,0,0,0,0c0,2.4,0,7.5-0.1,15.3c0,0,0.2,0.1,0.6,0.1H86l0,0
		c0-7.3,0-12.5,0.1-15.4l0,0H82.9z"/>
	<polygon class="st0" points="150.7,84.7 150.6,77.1 135,77.1 135,81.2 145.6,88.8 138.9,88.8 138.9,84.7 134.9,84.7 134.9,92.4 
		150.7,92.4 150.7,88.2 140.1,80.6 146.9,80.6 146.9,84.7 	"/>
	<polygon class="st0" points="107.4,84.7 107.3,77.1 91.6,77.1 91.6,81.2 102.2,88.8 95.6,88.8 95.6,84.7 91.6,84.7 91.6,92.4 
		107.4,92.4 107.4,88.2 96.7,80.6 103.6,80.6 103.6,84.7 	"/>
	<path class="st0" d="M113.3,92.5h15.8V77.1h-15.8V92.5z M117.1,81.5h8v6.7h-8V81.5z"/>
	<path class="st0" d="M156.3,77.1v15.4h15.8V77.1H156.3z M168.1,88.3h-8v-6.7h8V88.3z"/>
</g>
</svg></symbol>
    <symbol id="hexa" xmlns="http://www.w3.org/2000/svg">         <svg version="1.1" id="Layer_1" xmlns="http://www.w3.org/2000/svg" xmlns:xlink="http://www.w3.org/1999/xlink" x="0px" y="0px"
          viewBox="0 0 191.4 169.7" style="enable-background:new 0 0 191.4 169.7;" xml:space="preserve">
        <style type="text/css">
          .st0{fill:#53499E;}
        </style>
        <g>
          <path class="st0" d="M52,77.1c-0.2,0-0.6,0-1,0c0,0,0,0,0,0c0,2.4,0,7.5-0.1,15.3c0,0,0.2,0.1,0.6,0.1h3.7l0,0
            c0-7.3,0-12.5,0.1-15.4l0,0H52z"/>
          <path class="st0" d="M37.1,88.3c2.9-2.9,5.1-5,6.5-6.4l0,0l-2.3-2.3c-0.2-0.2-0.4-0.4-0.7-0.7c0,0,0,0,0,0
            c-1.2,1.2-3.4,3.4-6.5,6.5c0-3.6,0-6.3,0-8.1l0,0h-3.2c-0.2,0-0.6,0-1,0c0,0,0,0,0,0c0,2.1,0,6.2-0.1,12.4c0,0,0,0,0,0c0,0,0,0,0,0
            c0,0.9,0,1.9,0,2.9c0,0,0.1,0,0.2,0v0l0,0c0.9,0,1.8,0,2.7,0l0.1,0.1l0,0c0,0,0,0,0.1-0.1c5.8,0,10,0,12.5,0l0,0v-3.2
            c0-0.2,0-0.6,0-1c0,0,0,0,0,0C43.7,88.3,41,88.3,37.1,88.3z"/>
          <path class="st0" d="M68,88.3c2.9-2.9,5.1-5,6.5-6.4l0,0l-2.3-2.3c-0.2-0.2-0.4-0.4-0.7-0.7c0,0,0,0,0,0c-1.2,1.2-3.4,3.4-6.5,6.5
            c0-3.6,0-6.3,0-8.1l0,0h-3.2c-0.2,0-0.6,0-1,0c0,0,0,0,0,0c0,2.1,0,6.2-0.1,12.4c0,0,0,0,0,0c0,0,0,0,0,0c0,0.9,0,1.9,0,2.9
            c0,0,0.1,0,0.2,0v0l0,0c0.9,0,1.8,0,2.7,0l0.1,0.1l0,0c0,0,0,0,0.1-0.1c5.8,0,10,0,12.5,0l0,0v-3.2c0-0.2,0-0.6,0-1c0,0,0,0,0,0
            C74.6,88.3,71.9,88.3,68,88.3z"/>
          <path class="st0" d="M82.9,77.1c-0.2,0-0.6,0-1,0c0,0,0,0,0,0c0,2.4,0,7.5-0.1,15.3c0,0,0.2,0.1,0.6,0.1H86l0,0
            c0-7.3,0-12.5,0.1-15.4l0,0H82.9z"/>
          <polygon class="st0" points="150.7,84.7 150.6,77.1 135,77.1 135,81.2 145.6,88.8 138.9,88.8 138.9,84.7 134.9,84.7 134.9,92.4 
            150.7,92.4 150.7,88.2 140.1,80.6 146.9,80.6 146.9,84.7 	"/>
          <polygon class="st0" points="107.4,84.7 107.3,77.1 91.6,77.1 91.6,81.2 102.2,88.8 95.6,88.8 95.6,84.7 91.6,84.7 91.6,92.4 
            107.4,92.4 107.4,88.2 96.7,80.6 103.6,80.6 103.6,84.7 	"/>
          <path class="st0" d="M113.3,92.5h15.8V77.1h-15.8V92.5z M117.1,81.5h8v6.7h-8V81.5z"/>
          <path class="st0" d="M156.3,77.1v15.4h15.8V77.1H156.3z M168.1,88.3h-8v-6.7h8V88.3z"/>
        </g>
        </svg></symbol>
    <symbol id="cross" xmlns="http://www.w3.org/2000/svg">
             <svg version="1.1" id="Layer_1" xmlns="http://www.w3.org/2000/svg" xmlns:xlink="http://www.w3.org/1999/xlink" x="0px" y="0px"
          viewBox="0 0 191.4 169.7" style="enable-background:new 0 0 191.4 169.7;" xml:space="preserve">
        <style type="text/css">
          .st0{fill:#53499E;}
        </style>
        <g>
          <path class="st0" d="M52,77.1c-0.2,0-0.6,0-1,0c0,0,0,0,0,0c0,2.4,0,7.5-0.1,15.3c0,0,0.2,0.1,0.6,0.1h3.7l0,0
            c0-7.3,0-12.5,0.1-15.4l0,0H52z"/>
          <path class="st0" d="M37.1,88.3c2.9-2.9,5.1-5,6.5-6.4l0,0l-2.3-2.3c-0.2-0.2-0.4-0.4-0.7-0.7c0,0,0,0,0,0
            c-1.2,1.2-3.4,3.4-6.5,6.5c0-3.6,0-6.3,0-8.1l0,0h-3.2c-0.2,0-0.6,0-1,0c0,0,0,0,0,0c0,2.1,0,6.2-0.1,12.4c0,0,0,0,0,0c0,0,0,0,0,0
            c0,0.9,0,1.9,0,2.9c0,0,0.1,0,0.2,0v0l0,0c0.9,0,1.8,0,2.7,0l0.1,0.1l0,0c0,0,0,0,0.1-0.1c5.8,0,10,0,12.5,0l0,0v-3.2
            c0-0.2,0-0.6,0-1c0,0,0,0,0,0C43.7,88.3,41,88.3,37.1,88.3z"/>
          <path class="st0" d="M68,88.3c2.9-2.9,5.1-5,6.5-6.4l0,0l-2.3-2.3c-0.2-0.2-0.4-0.4-0.7-0.7c0,0,0,0,0,0c-1.2,1.2-3.4,3.4-6.5,6.5
            c0-3.6,0-6.3,0-8.1l0,0h-3.2c-0.2,0-0.6,0-1,0c0,0,0,0,0,0c0,2.1,0,6.2-0.1,12.4c0,0,0,0,0,0c0,0,0,0,0,0c0,0.9,0,1.9,0,2.9
            c0,0,0.1,0,0.2,0v0l0,0c0.9,0,1.8,0,2.7,0l0.1,0.1l0,0c0,0,0,0,0.1-0.1c5.8,0,10,0,12.5,0l0,0v-3.2c0-0.2,0-0.6,0-1c0,0,0,0,0,0
            C74.6,88.3,71.9,88.3,68,88.3z"/>
          <path class="st0" d="M82.9,77.1c-0.2,0-0.6,0-1,0c0,0,0,0,0,0c0,2.4,0,7.5-0.1,15.3c0,0,0.2,0.1,0.6,0.1H86l0,0
            c0-7.3,0-12.5,0.1-15.4l0,0H82.9z"/>
          <polygon class="st0" points="150.7,84.7 150.6,77.1 135,77.1 135,81.2 145.6,88.8 138.9,88.8 138.9,84.7 134.9,84.7 134.9,92.4 
            150.7,92.4 150.7,88.2 140.1,80.6 146.9,80.6 146.9,84.7 	"/>
          <polygon class="st0" points="107.4,84.7 107.3,77.1 91.6,77.1 91.6,81.2 102.2,88.8 95.6,88.8 95.6,84.7 91.6,84.7 91.6,92.4 
            107.4,92.4 107.4,88.2 96.7,80.6 103.6,80.6 103.6,84.7 	"/>
          <path class="st0" d="M113.3,92.5h15.8V77.1h-15.8V92.5z M117.1,81.5h8v6.7h-8V81.5z"/>
          <path class="st0" d="M156.3,77.1v15.4h15.8V77.1H156.3z M168.1,88.3h-8v-6.7h8V88.3z"/>
        </g>
        </svg>
    </symbol>
  </defs>
</svg>